<svg width="24" height="24" viewBox="0 0 24 24" fill="none" xmlns="http://www.w3.org/2000/svg" aria-labelledby="title">
<title id="title">Arrow left</title>
<path fill-rule="evenodd" clip-rule="evenodd" d="M11.9697 4.46967C12.2626 4.17678 12.7374 4.17678 13.0303 4.46967C13.3232 4.76256 13.3232 5.23744 13.0303 5.53033L7.31066 11.25H19.5C19.9142 11.25 20.25 11.5858 20.25 12C20.25 12.4142 19.9142 12.75 19.5 12.75H7.31066L13.0303 18.4697C13.3232 18.7626 13.3232 19.2374 13.0303 19.5303C12.7374 19.8232 12.2626 19.8232 11.9697 19.5303L4.96967 12.5303C4.89776 12.4584 4.84351 12.3755 4.80691 12.2871C4.77024 12.1987 4.75 12.1017 4.75 12C4.75 11.8983 4.77024 11.8013 4.80691 11.7129C4.84351 11.6245 4.89776 11.5416 4.96967 11.4697L11.9697 4.46967Z" fill="black"/>
</svg>
