<svg width="24" height="24" viewBox="0 0 24 24" fill="none" xmlns="http://www.w3.org/2000/svg" aria-labelledby="title">
<title id="title">Arrow right</title>
<path fill-rule="evenodd" clip-rule="evenodd" d="M13.0303 4.46967C12.7374 4.17678 12.2626 4.17678 11.9697 4.46967C11.6768 4.76256 11.6768 5.23744 11.9697 5.53033L17.6893 11.25H5.5C5.08579 11.25 4.75 11.5858 4.75 12C4.75 12.4142 5.08579 12.75 5.5 12.75H17.6893L11.9697 18.4697C11.6768 18.7626 11.6768 19.2374 11.9697 19.5303C12.2626 19.8232 12.7374 19.8232 13.0303 19.5303L20.0303 12.5303C20.1022 12.4584 20.1565 12.3755 20.1931 12.2871C20.2298 12.1987 20.25 12.1017 20.25 12C20.25 11.8983 20.2298 11.8013 20.1931 11.7129C20.1565 11.6245 20.1022 11.5416 20.0303 11.4697L13.0303 4.46967Z" fill="black"/>
</svg>
