<svg width="48" height="48" viewBox="0 0 48 48" fill="none" xmlns="http://www.w3.org/2000/svg">
<path fill-rule="evenodd" clip-rule="evenodd" d="M12.9996 12.875C12.4473 12.875 11.9996 13.3227 11.9996 13.875C11.9996 14.4273 12.4473 14.875 12.9996 14.875H16.1799L17.0116 19.0301C17.016 19.0585 17.0216 19.0866 17.0284 19.1142L18.6988 27.4598L18.699 27.4607C18.8363 28.1509 19.2119 28.7709 19.7601 29.2123C20.3058 29.6516 20.988 29.886 21.6883 29.875H31.391C32.0913 29.886 32.7734 29.6516 33.3192 29.2123C33.8676 28.7708 34.2433 28.1504 34.3805 27.4598L34.3805 27.4598L34.3819 27.4523L35.9819 19.0623C36.0378 18.7696 35.9601 18.4672 35.7701 18.2376C35.5802 18.0079 35.2977 17.875 34.9996 17.875H18.8201L17.9802 13.6787C17.8866 13.2114 17.4763 12.875 16.9996 12.875H12.9996ZM20.6602 27.0687L19.2204 19.875H33.7909L32.4182 27.0734C32.3719 27.3023 32.247 27.5078 32.065 27.6543C31.8822 27.8015 31.6534 27.8797 31.4188 27.8752L31.3996 27.875H21.6796L21.6605 27.8752C21.4258 27.8797 21.1971 27.8015 21.0142 27.6543C20.8314 27.5072 20.7062 27.3004 20.6605 27.0702L20.6602 27.0687ZM18.9996 33.125C18.9996 32.0204 19.8951 31.125 20.9996 31.125C22.1042 31.125 22.9996 32.0204 22.9996 33.125C22.9996 34.2296 22.1042 35.125 20.9996 35.125C19.8951 35.125 18.9996 34.2296 18.9996 33.125ZM29.9996 33.125C29.9996 32.0204 30.8951 31.125 31.9996 31.125C33.1042 31.125 33.9996 32.0204 33.9996 33.125C33.9996 34.2296 33.1042 35.125 31.9996 35.125C30.8951 35.125 29.9996 34.2296 29.9996 33.125Z" fill="#424242"/>
</svg>
