<svg width="48" height="48" viewBox="0 0 48 48" fill="none" xmlns="http://www.w3.org/2000/svg">
<path fill-rule="evenodd" clip-rule="evenodd" d="M15.4094 15.4757C15.352 15.5583 13.9742 17.494 11.9313 17.5855L11.9311 17.5855C10.6285 17.6513 9.37442 16.9511 8.21797 15.525C7.92734 15.1665 7.92734 14.5853 8.21797 14.2268C8.36327 14.0475 8.5539 13.958 8.7443 13.958C8.93425 13.958 9.12465 14.0475 9.26996 14.2268C10.118 15.273 10.9885 15.7862 11.8655 15.7513C13.2553 15.6962 14.2755 14.2866 14.2854 14.2726L14.2874 14.2703C14.3671 14.157 15.7376 12.257 17.7619 12.1657C17.8133 12.1634 17.8642 12.1621 17.9153 12.1621C19.1677 12.1621 20.3643 12.8559 21.4748 14.2264C22.3226 15.2726 23.1913 15.7857 24.0704 15.7509C25.4536 15.696 26.4704 14.2994 26.49 14.2724L26.4902 14.2721L26.4923 14.2699C26.572 14.1565 27.9425 12.2565 29.9668 12.1652C30.0181 12.163 30.069 12.1617 30.1201 12.1617C31.3726 12.1617 32.5692 12.8554 33.6797 14.2259C34.5277 15.2721 35.4001 15.7853 36.2752 15.7505C37.665 15.6953 38.6853 14.2858 38.6951 14.2717C38.9656 13.8922 39.4346 13.8518 39.744 14.1844C40.0529 14.5166 40.0866 15.0929 39.8192 15.4753C39.7611 15.5578 38.3833 17.4936 36.3404 17.5851C35.0382 17.6512 33.7835 16.951 32.6273 15.5244C31.7755 14.4735 30.8994 13.9641 30.0206 14.0003C28.6448 14.062 27.6303 15.4531 27.6141 15.4753L27.614 15.4755C27.5566 15.5581 26.178 17.4938 24.1359 17.5853C22.8287 17.6481 21.579 16.951 20.4227 15.5246C19.571 14.4737 18.6926 13.9644 17.8161 14.0005C16.4405 14.0622 15.4252 15.4541 15.4095 15.4756L15.4094 15.4757ZM38.6951 24.2717C38.6853 24.2858 37.665 25.6953 36.2753 25.7505C35.4001 25.7844 34.5277 25.2721 33.6797 24.2259C32.5692 22.8554 31.3726 22.1617 30.1201 22.1617C30.069 22.1617 30.0181 22.163 29.9668 22.1652C27.9425 22.2565 26.572 24.1565 26.4923 24.2699L26.4902 24.2721L26.49 24.2724C26.4703 24.2996 25.4535 25.696 24.0704 25.7509C23.1913 25.7848 22.3226 25.2726 21.4748 24.2264C20.3643 22.8559 19.1677 22.1621 17.9153 22.1621C17.8642 22.1621 17.8133 22.1634 17.7619 22.1657C15.7376 22.257 14.3671 24.157 14.2874 24.2703L14.2854 24.2726C14.2755 24.2866 13.2553 25.6962 11.8655 25.7514C10.9885 25.7853 10.118 25.273 9.26996 24.2268C9.12465 24.0475 8.93425 23.958 8.7443 23.958C8.5539 23.958 8.36327 24.0475 8.21797 24.2268C7.92734 24.5853 7.92734 25.1665 8.21797 25.525C9.37419 26.9516 10.6285 27.6504 11.9311 27.5857C13.9739 27.4942 15.3518 25.5584 15.4092 25.4759L15.4093 25.4757C15.4249 25.4543 16.4403 24.0623 17.8158 24.0007C18.6924 23.9659 19.5708 24.4739 20.4225 25.5248C21.5787 26.9511 22.8285 27.6442 24.1356 27.5855C26.1778 27.4939 27.5564 25.5582 27.6137 25.4756L27.6138 25.4755C27.6301 25.4533 28.6446 24.0621 30.0204 24.0004C30.8992 23.9656 31.7753 24.4737 32.6271 25.5246C33.7833 26.9511 35.038 27.65 36.3402 27.5852C38.383 27.4937 39.7609 25.558 39.819 25.4754C40.0864 25.093 40.0527 24.5167 39.7437 24.1846C39.4344 23.8518 38.9656 23.8917 38.6949 24.2716L38.6951 24.2717ZM38.6951 32.5204C38.6853 32.5345 37.665 33.9441 36.2753 33.9992C35.4001 34.0322 34.5277 33.5209 33.6797 32.4746C32.5692 31.1041 31.3726 30.4104 30.1201 30.4104C30.069 30.4104 30.0181 30.4117 29.9668 30.4139C27.9425 30.5052 26.5722 32.4052 26.4923 32.5186L26.4902 32.5208L26.49 32.5211C26.4703 32.5482 25.4536 33.9448 24.0704 33.9996C23.1913 34.0327 22.3226 33.5213 21.4748 32.4751C20.3643 31.1046 19.1677 30.4108 17.9153 30.4108C17.8642 30.4108 17.8133 30.4121 17.7619 30.4144C15.7376 30.5057 14.3673 32.4057 14.2874 32.519L14.2854 32.5213C14.2755 32.5353 13.2553 33.9449 11.8655 34.0001C10.9885 34.0331 10.118 33.5217 9.26996 32.4755C9.12465 32.2963 8.93425 32.2068 8.7443 32.2068C8.5539 32.2068 8.36327 32.2963 8.21797 32.4755C7.92734 32.834 7.92734 33.4152 8.21797 33.7737C9.37419 35.2003 10.6285 35.8978 11.9311 35.8344C13.9739 35.7429 15.3518 33.8072 15.4092 33.7246L15.4093 33.7244C15.4249 33.7031 16.4403 32.3111 17.8158 32.2494C18.6924 32.2101 19.5708 32.7226 20.4225 33.7735C21.5787 35.1998 22.8285 35.8945 24.1356 35.8342C26.1778 35.7427 27.5564 33.8069 27.6137 33.7244L27.6138 33.7242C27.63 33.7021 28.6446 32.3108 30.0204 32.2492C30.8992 32.2099 31.7753 32.7224 32.6271 33.7733C33.7833 35.1998 35.038 35.8974 36.3402 35.8339C38.383 35.7424 39.7609 33.8067 39.819 33.7241C40.0864 33.3418 40.0527 32.7654 39.7437 32.4333C39.4344 32.1002 38.9656 32.1404 38.6949 32.5203L38.6951 32.5204Z" fill="#424242"/>
</svg>
