<svg width="48" height="48" viewBox="0 0 48 48" fill="none" xmlns="http://www.w3.org/2000/svg" aria-labelledby="title">
<title id="title">Like</title>
<path d="M32.9376 16.4125C32.4212 15.8959 31.808 15.486 31.1331 15.2064C30.4582 14.9267 29.7349 14.7828 29.0044 14.7828C28.2738 14.7828 27.5505 14.9267 26.8756 15.2064C26.2007 15.486 25.5876 15.8959 25.0711 16.4125L23.9994 17.4843L22.9276 16.4125C21.8844 15.3694 20.4696 14.7833 18.9944 14.7833C17.5191 14.7833 16.1043 15.3694 15.0611 16.4125C14.018 17.4557 13.4319 18.8705 13.4319 20.3458C13.4319 21.821 14.018 23.2358 15.0611 24.279L16.1329 25.3508L23.9994 33.2172L31.8658 25.3508L32.9376 24.279C33.4543 23.7626 33.8641 23.1494 34.1438 22.4745C34.4234 21.7996 34.5673 21.0763 34.5673 20.3458C34.5673 19.6152 34.4234 18.8919 34.1438 18.217C33.8641 17.5421 33.4543 16.929 32.9376 16.4125V16.4125Z" stroke="#424242" stroke-width="2.02222" stroke-linecap="round" stroke-linejoin="round"/>
</svg>
