<svg width="24" height="24" viewBox="0 0 24 24" fill="none" xmlns="http://www.w3.org/2000/svg" aria-labelledby="title">
<title id="title">Like</title>
<path d="M21.2913 4.57886C20.7805 4.06786 20.1741 3.66251 19.5066 3.38594C18.8392 3.10938 18.1238 2.96703 17.4013 2.96703C16.6788 2.96703 15.9634 3.10938 15.2959 3.38594C14.6285 3.66251 14.022 4.06786 13.5113 4.57886L12.4513 5.63886L11.3913 4.57886C10.3596 3.54717 8.96032 2.96757 7.50129 2.96757C6.04226 2.96757 4.64298 3.54717 3.61129 4.57886C2.5796 5.61055 2 7.00983 2 8.46886C2 9.92789 2.5796 11.3272 3.61129 12.3589L4.67129 13.4189L12.4513 21.1989L20.2313 13.4189L21.2913 12.3589C21.8023 11.8481 22.2076 11.2417 22.4842 10.5742C22.7608 9.90675 22.9031 9.19135 22.9031 8.46886C22.9031 7.74637 22.7608 7.03096 22.4842 6.3635C22.2076 5.69604 21.8023 5.08961 21.2913 4.57886V4.57886Z" stroke="black" stroke-width="1.5" stroke-linecap="round" stroke-linejoin="round"/>
</svg>
